<svg xmlns="http://www.w3.org/2000/svg" width="1200" height="630" viewBox="0 0 1200 630">
  <defs>
    <linearGradient id="bgGrad" x1="0%" y1="0%" x2="100%" y2="100%">
      <stop offset="0%" style="stop-color:#1a1a2e"/>
      <stop offset="100%" style="stop-color:#16213e"/>
    </linearGradient>
    <linearGradient id="calGrad" x1="0%" y1="0%" x2="100%" y2="0%">
      <stop offset="0%" style="stop-color:#f59e0b"/>
      <stop offset="100%" style="stop-color:#d97706"/>
    </linearGradient>
  </defs>
  <rect width="1200" height="630" fill="url(#bgGrad)"/>
  <rect x="0" y="580" width="1200" height="50" fill="url(#calGrad)"/>
  <!-- Calendar Icon -->
  <g transform="translate(600, 180)">
    <rect x="-80" y="-60" width="160" height="140" rx="10" fill="#16213e" stroke="#f59e0b" stroke-width="6"/>
    <rect x="-80" y="-60" width="160" height="40" rx="10" fill="url(#calGrad)"/>
    <rect x="-50" y="-80" width="12" height="30" rx="4" fill="#f59e0b"/>
    <rect x="38" y="-80" width="12" height="30" rx="4" fill="#f59e0b"/>
    <rect x="-55" y="0" width="25" height="25" rx="3" fill="#f59e0b" opacity="0.8"/>
    <rect x="-15" y="0" width="25" height="25" rx="3" fill="#f59e0b" opacity="0.6"/>
    <rect x="25" y="0" width="25" height="25" rx="3" fill="#f59e0b" opacity="0.4"/>
    <rect x="-55" y="35" width="25" height="25" rx="3" fill="#f59e0b" opacity="0.4"/>
    <rect x="-15" y="35" width="25" height="25" rx="3" fill="#ffffff" opacity="0.9"/>
    <rect x="25" y="35" width="25" height="25" rx="3" fill="#f59e0b" opacity="0.3"/>
  </g>
  <!-- Text -->
  <text x="600" y="420" font-family="Arial, sans-serif" font-size="72" font-weight="bold" fill="#ffffff" text-anchor="middle">EDITORIAL</text>
  <text x="600" y="480" font-family="Arial, sans-serif" font-size="28" fill="#a0a0a0" text-anchor="middle">Content Calendar &amp; Style Guide</text>
  <text x="600" y="550" font-family="Arial, sans-serif" font-size="24" fill="#f59e0b" text-anchor="middle">HEAVIERWEIGHT.COM</text>
</svg>
