<svg xmlns="http://www.w3.org/2000/svg" width="1200" height="630" viewBox="0 0 1200 630">
  <defs>
    <linearGradient id="bgGrad" x1="0%" y1="0%" x2="100%" y2="100%">
      <stop offset="0%" style="stop-color:#1a1a2e"/>
      <stop offset="100%" style="stop-color:#16213e"/>
    </linearGradient>
    <linearGradient id="lifeGrad" x1="0%" y1="0%" x2="100%" y2="0%">
      <stop offset="0%" style="stop-color:#f472b6"/>
      <stop offset="100%" style="stop-color:#ec4899"/>
    </linearGradient>
  </defs>
  <rect width="1200" height="630" fill="url(#bgGrad)"/>
  <rect x="0" y="580" width="1200" height="50" fill="url(#lifeGrad)"/>
  <!-- Heart Icon -->
  <g transform="translate(600, 180)">
    <path d="M0,40 C-20,20 -80,-20 -80,-60 C-80,-100 -50,-120 -20,-120 C0,-120 20,-100 20,-80 L0,-60 L-20,-80 C-20,-100 0,-120 20,-120 C50,-120 80,-100 80,-60 C80,-20 20,20 0,40 Z" fill="url(#lifeGrad)" transform="scale(1.5)"/>
  </g>
  <!-- Text -->
  <text x="600" y="420" font-family="Arial, sans-serif" font-size="72" font-weight="bold" fill="#ffffff" text-anchor="middle">LIFE</text>
  <text x="600" y="480" font-family="Arial, sans-serif" font-size="28" fill="#a0a0a0" text-anchor="middle">Mindset, Community &amp; Wellness</text>
  <text x="600" y="550" font-family="Arial, sans-serif" font-size="24" fill="#f472b6" text-anchor="middle">HEAVIERWEIGHT.COM</text>
</svg>
