<svg xmlns="http://www.w3.org/2000/svg" width="1200" height="630" viewBox="0 0 1200 630">
  <defs>
    <linearGradient id="bgGrad" x1="0%" y1="0%" x2="100%" y2="100%">
      <stop offset="0%" style="stop-color:#1a1a2e"/>
      <stop offset="100%" style="stop-color:#16213e"/>
    </linearGradient>
    <linearGradient id="scienceGrad" x1="0%" y1="0%" x2="100%" y2="0%">
      <stop offset="0%" style="stop-color:#00d9ff"/>
      <stop offset="100%" style="stop-color:#0099cc"/>
    </linearGradient>
  </defs>
  <rect width="1200" height="630" fill="url(#bgGrad)"/>
  <rect x="0" y="580" width="1200" height="50" fill="url(#scienceGrad)"/>
  <!-- DNA Helix Icon -->
  <g transform="translate(600, 200)">
    <path d="M-60,-120 Q0,-80 60,-120 Q120,-160 60,-200" fill="none" stroke="#00d9ff" stroke-width="12" stroke-linecap="round"/>
    <path d="M60,-120 Q0,-80 -60,-120 Q-120,-160 -60,-200" fill="none" stroke="#0099cc" stroke-width="12" stroke-linecap="round"/>
    <path d="M-60,-40 Q0,0 60,-40 Q120,-80 60,-120" fill="none" stroke="#00d9ff" stroke-width="12" stroke-linecap="round"/>
    <path d="M60,-40 Q0,0 -60,-40 Q-120,-80 -60,-120" fill="none" stroke="#0099cc" stroke-width="12" stroke-linecap="round"/>
    <path d="M-60,40 Q0,80 60,40 Q120,0 60,-40" fill="none" stroke="#00d9ff" stroke-width="12" stroke-linecap="round"/>
    <path d="M60,40 Q0,80 -60,40 Q-120,0 -60,-40" fill="none" stroke="#0099cc" stroke-width="12" stroke-linecap="round"/>
    <line x1="-40" y1="-160" x2="40" y2="-160" stroke="#ffffff" stroke-width="4"/>
    <line x1="-50" y1="-120" x2="50" y2="-120" stroke="#ffffff" stroke-width="4"/>
    <line x1="-40" y1="-80" x2="40" y2="-80" stroke="#ffffff" stroke-width="4"/>
    <line x1="-50" y1="-40" x2="50" y2="-40" stroke="#ffffff" stroke-width="4"/>
    <line x1="-40" y1="0" x2="40" y2="0" stroke="#ffffff" stroke-width="4"/>
    <line x1="-50" y1="40" x2="50" y2="40" stroke="#ffffff" stroke-width="4"/>
  </g>
  <!-- Text -->
  <text x="600" y="420" font-family="Arial, sans-serif" font-size="72" font-weight="bold" fill="#ffffff" text-anchor="middle">SCIENCE</text>
  <text x="600" y="480" font-family="Arial, sans-serif" font-size="28" fill="#a0a0a0" text-anchor="middle">Evidence-Based Training &amp; Physiology</text>
  <text x="600" y="550" font-family="Arial, sans-serif" font-size="24" fill="#00d9ff" text-anchor="middle">HEAVIERWEIGHT.COM</text>
</svg>
